<svg xmlns="http://www.w3.org/2000/svg" width="1920" height="1080" viewBox="0 0 1920 1080">
  <!-- Background -->
  <rect x="0" y="0" width="1920" height="1080" fill="#1a1d23" rx="0" />
  
  <!-- Hero Section -->
  <g transform="translate(150, 100)">
    <text x="0" y="50" font-size="64" font-family="Segoe UI" fill="#66d9ef" font-weight="bold">Quantum Blood Classifier</text>
    <text x="0" y="120" font-size="24" font-family="Segoe UI" fill="#8a8d95">Cutting-edge research project for medical diagnostics</text>
  </g>
  
  <!-- Holographic Cards -->
  <g transform="translate(500, 200)">
    <rect x="0" y="0" width="300" height="200" fill="#2f343a" rx="10" />
    <rect x="10" y="10" width="280" height="180" fill="#3b4148" rx="5" />
    <text x="20" y="30" font-size="24" font-family="Segoe UI" fill="#66d9ef">Blood Group A</text>
    <text x="20" y="60" font-size="18" font-family="Segoe UI" fill="#8a8d95">Prediction Confidence: 92%</text>
  </g>
  <g transform="translate(850, 200)">
    <rect x="0" y="0" width="300" height="200" fill="#2f343a" rx="10" />
    <rect x="10" y="10" width="280" height="180" fill="#3b4148" rx="5" />
    <text x="20" y="30" font-size="24" font-family="Segoe UI" fill="#66d9ef">Blood Group B</text>
    <text x="20" y="60" font-size="18" font-family="Segoe UI" fill="#8a8d95">Prediction Confidence: 85%</text>
  </g>
  <g transform="translate(1200, 200)">
    <rect x="0" y="0" width="300" height="200" fill="#2f343a" rx="10" />
    <rect x="10" y="10" width="280" height="180" fill="#3b4148" rx="5" />
    <text x="20" y="30" font-size="24" font-family="Segoe UI" fill="#66d9ef">Blood Group AB</text>
    <text x="20" y="60" font-size="18" font-family="Segoe UI" fill="#8a8d95">Prediction Confidence: 78%</text>
  </g>
  <g transform="translate(1550, 200)">
    <rect x="0" y="0" width="300" height="200" fill="#2f343a" rx="10" />
    <rect x="10" y="10" width="280" height="180" fill="#3b4148" rx="5" />
    <text x="20" y="30" font-size="24" font-family="Segoe UI" fill="#66d9ef">Blood Group O</text>
    <text x="20" y="60" font-size="18" font-family="Segoe UI" fill="#8a8d95">Prediction Confidence: 95%</text>
  </g>
  
  <!-- Quantum Circuit Motif -->
  <g transform="translate(100, 500)">
    <rect x="0" y="0" width="200" height="200" fill="#2f343a" rx="10" />
    <path d="M 50 50 L 150 50" stroke="#66d9ef" stroke-width="5" />
    <path d="M 50 100 L 150 100" stroke="#66d9ef" stroke-width="5" />
    <path d="M 50 150 L 150 150" stroke="#66d9ef" stroke-width="5" />
    <circle cx="100" cy="100" r="20" fill="#66d9ef" />
  </g>
  
  <!-- Prediction Confidence Chips -->
  <g transform="translate(500, 600)">
    <rect x="0" y="0" width="100" height="30" fill="#2f343a" rx="5" />
    <text x="10" y="20" font-size="18" font-family="Segoe UI" fill="#66d9ef">92% Confidence</text>
  </g>
  <g transform="translate(650, 600)">
    <rect x="0" y="0" width="100" height="30" fill="#2f343a" rx="5" />
    <text x="10" y="20" font-size="18" font-family="Segoe UI" fill="#66d9ef">85% Confidence</text>
  </g>
  <g transform="translate(800, 600)">
    <rect x="0" y="0" width="100" height="30" fill="#2f343a" rx="5" />
    <text x="10" y="20" font-size="18" font-family="Segoe UI" fill="#66d9ef">78% Confidence</text>
  </g>
  <g transform="translate(950, 600)">
    <rect x="0" y="0" width="100" height="30" fill="#2f343a" rx="5" />
    <text x="10" y="20" font-size="18" font-family="Segoe UI" fill="#66d9ef">95% Confidence</text>
  </g>
</svg>