<svg xmlns="http://www.w3.org/2000/svg" width="1440" height="810" viewBox="0 0 1440 810">
  <rect x="0" y="0" width="1440" height="810" fill="#1a1a1a" rx="10" />
  <g transform="matrix(1, 0, 0, 1, 100, 100)">
    <rect x="0" y="0" width="200" height="50" fill="#2f2f2f" rx="5" />
    <text x="10" y="35" font-size="24" fill="#ffffff" font-family="Arial, sans-serif">MRI Import</text>
    <rect x="220" y="0" width="50" height="50" fill="#ff00ff" rx="5" />
  </g>
  <g transform="matrix(1, 0, 0, 1, 350, 100)">
    <rect x="0" y="0" width="200" height="50" fill="#2f2f2f" rx="5" />
    <text x="10" y="35" font-size="24" fill="#ffffff" font-family="Arial, sans-serif">Normalize/Augment</text>
    <rect x="220" y="0" width="50" height="50" fill="#ff00ff" rx="5" />
  </g>
  <g transform="matrix(1, 0, 0, 1, 600, 100)">
    <rect x="0" y="0" width="200" height="50" fill="#2f2f2f" rx="5" />
    <text x="10" y="35" font-size="24" fill="#ffffff" font-family="Arial, sans-serif">CNN Inference</text>
    <rect x="220" y="0" width="50" height="50" fill="#ff00ff" rx="5" />
  </g>
  <g transform="matrix(1, 0, 0, 1, 850, 100)">
    <rect x="0" y="0" width="200" height="50" fill="#2f2f2f" rx="5" />
    <text x="10" y="35" font-size="24" fill="#ffffff" font-family="Arial, sans-serif">Heatmap Overlay</text>
    <rect x="220" y="0" width="50" height="50" fill="#ff00ff" rx="5" />
  </g>
  <g transform="matrix(1, 0, 0, 1, 100, 250)">
    <rect x="0" y="0" width="200" height="50" fill="#2f2f2f" rx="5" />
    <text x="10" y="35" font-size="24" fill="#ffffff" font-family="Arial, sans-serif">QA Review</text>
    <rect x="220" y="0" width="50" height="50" fill="#ff00ff" rx="5" />
  </g>
  <g transform="matrix(1, 0, 0, 1, 350, 250)">
    <rect x="0" y="0" width="200" height="50" fill="#2f2f2f" rx="5" />
    <text x="10" y="35" font-size="24" fill="#ffffff" font-family="Arial, sans-serif">EMR Export</text>
    <rect x="220" y="0" width="50" height="50" fill="#ff00ff" rx="5" />
  </g>
  <g transform="matrix(1, 0, 0, 1, 150, 150)">
    <path d="M 0 0 L 200 0" stroke="#ff00ff" stroke-width="5" fill="none" />
  </g>
  <g transform="matrix(1, 0, 0, 1, 400, 150)">
    <path d="M 0 0 L 200 0" stroke="#ff00ff" stroke-width="5" fill="none" />
  </g>
  <g transform="matrix(1, 0, 0, 1, 650, 150)">
    <path d="M 0 0 L 200 0" stroke="#ff00ff" stroke-width="5" fill="none" />
  </g>
  <g transform="matrix(1, 0, 0, 1, 900, 150)">
    <path d="M 0 0 L 200 0" stroke="#ff00ff" stroke-width="5" fill="none" />
  </g>
  <g transform="matrix(1, 0, 0, 1, 150, 300)">
    <path d="M 0 0 L 0 100" stroke="#ff00ff" stroke-width="5" fill="none" />
  </g>
  <g transform="matrix(1, 0, 0, 1, 400, 300)">
    <path d="M 0 0 L 0 100" stroke="#ff00ff" stroke-width="5" fill="none" />
  </g>
</svg>