
        <svg xmlns="http://www.w3.org/2000/svg" viewBox="0 0 1200 800" style="background-color: #18181b;">
            <!-- Window Frame -->
            <rect x="50" y="50" width="1100" height="700" rx="12" fill="#27272a" stroke="#3f3f46" stroke-width="2"/>
            <!-- Window Header -->
            <path d="M50 62 A 12 12 0 0 1 62 50 L 1138 50 A 12 12 0 0 1 1150 62 L 1150 90 L 50 90 Z" fill="#3f3f46"/>
            <circle cx="80" cy="70" r="6" fill="#ef4444"/>
            <circle cx="100" cy="70" r="6" fill="#f59e0b"/>
            <circle cx="120" cy="70" r="6" fill="#10b981"/>
            
            <!-- Sidebar -->
            <rect x="50" y="90" width="200" height="660" fill="#27272a" stroke-right="#3f3f46"/>
            <rect x="70" y="120" width="160" height="20" rx="4" fill="#3b82f6" opacity="0.2"/>
            <rect x="70" y="160" width="140" height="12" rx="2" fill="#52525b"/>
            <rect x="70" y="190" width="140" height="12" rx="2" fill="#52525b"/>
            <rect x="70" y="220" width="140" height="12" rx="2" fill="#52525b"/>

            <!-- Content Area -->
            <text x="280" y="140" font-family="sans-serif" font-size="24" fill="white" font-weight="bold">Intelligent Resume Parser & Skill Extraction</text>
            
            <!-- Dashboard Widgets -->
            <rect x="280" y="170" width="250" height="150" rx="8" fill="#3f3f46"/>
            <rect x="560" y="170" width="250" height="150" rx="8" fill="#3f3f46"/>
            <rect x="840" y="170" width="250" height="150" rx="8" fill="#3f3f46"/>
            
            <!-- Chart Placeholder -->
            <rect x="280" y="350" width="810" height="300" rx="8" fill="#18181b" stroke="#3f3f46"/>
            <path d="M300 600 L 400 500 L 500 550 L 600 450 L 700 480 L 800 380 L 900 420 L 1000 350" fill="none" stroke="#3b82f6" stroke-width="3"/>
        </svg>