<svg xmlns="http://www.w3.org/2000/svg" viewBox="0 0 1920 1080" width="1920" height="1080">
  <!-- Background -->
  <rect x="0" y="0" width="1920" height="1080" fill="#2f2f2f" rx="10" />
  
  <!-- Nodes -->
  <g>
    <!-- Ingest -->
    <rect x="100" y="200" width="200" height="50" fill="#4f4f4f" rx="10" />
    <text x="150" y="235" font-size="24" font-family="Open Sans" fill="#fff">Ingest</text>
    
    <!-- Parse -->
    <rect x="400" y="200" width="200" height="50" fill="#4f4f4f" rx="10" />
    <text x="450" y="235" font-size="24" font-family="Open Sans" fill="#fff">Parse</text>
    
    <!-- Extract entities -->
    <rect x="700" y="200" width="200" height="50" fill="#4f4f4f" rx="10" />
    <text x="750" y="235" font-size="24" font-family="Open Sans" fill="#fff">Extract entities</text>
    
    <!-- Normalize skills -->
    <rect x="1000" y="200" width="200" height="50" fill="#4f4f4f" rx="10" />
    <text x="1050" y="235" font-size="24" font-family="Open Sans" fill="#fff">Normalize skills</text>
    
    <!-- Match JD -->
    <rect x="1300" y="200" width="200" height="50" fill="#4f4f4f" rx="10" />
    <text x="1350" y="235" font-size="24" font-family="Open Sans" fill="#fff">Match JD</text>
    
    <!-- Score -->
    <rect x="1600" y="200" width="200" height="50" fill="#4f4f4f" rx="10" />
    <text x="1650" y="235" font-size="24" font-family="Open Sans" fill="#fff">Score</text>
    
    <!-- Export -->
    <rect x="1750" y="200" width="200" height="50" fill="#4f4f4f" rx="10" />
    <text x="1800" y="235" font-size="24" font-family="Open Sans" fill="#fff">Export</text>
  </g>
  
  <!-- Connections -->
  <g>
    <path d="M300 225 L400 225" stroke="#fff" stroke-width="2" />
    <path d="M600 225 L700 225" stroke="#fff" stroke-width="2" />
    <path d="M900 225 L1000 225" stroke="#fff" stroke-width="2" />
    <path d="M1200 225 L1300 225" stroke="#fff" stroke-width="2" />
    <path d="M1500 225 L1600 225" stroke="#fff" stroke-width="2" />
    <path d="M1700 225 L1750 225" stroke="#fff" stroke-width="2" />
  </g>
  
  <!-- Highlights -->
  <g>
    <rect x="100" y="200" width="200" height="50" fill="none" stroke="#ff00ff" stroke-width="2" rx="10" />
    <rect x="700" y="200" width="200" height="50" fill="none" stroke="#ff00ff" stroke-width="2" rx="10" />
    <rect x="1600" y="200" width="200" height="50" fill="none" stroke="#ff00ff" stroke-width="2" rx="10" />
  </g>
</svg>