<svg role="img" viewBox="0 0 24 24" xmlns="http://www.w3.org/2000/svg" fill="#FFA116"><title>LeetCode</title><path d="M13.483 0a1.374 1.374 0 0 0-.961.438L7.116 6.226l-3.854 4.126a5.266 5.266 0 0 0-1.209 2.104 5.35 5.35 0 0 0-.125.513 5.527 5.527 0 0 0 .062 2.362 5.83 5.83 0 0 0 .349 1.017 5.938 5.938 0 0 0 1.271 1.818l4.277 4.193.039.038c2.248 2.165 5.852 2.133 8.063-.074l2.396-2.392c.54-.54.54-1.414.003-1.955a1.378 1.378 0 0 0-1.951-.003l-2.396 2.392a3.021 3.021 0 0 1-4.205.038l-.02-.019-4.276-4.193c-.652-.64-.972-1.469-.948-2.263a2.68 2.68 0 0 1 .066-.523 2.545 2.545 0 0 1 .619-1.169 2.54 2.54 0 0 1 .947-.643 2.677 2.677 0 0 1 .533-.133l3.861-4.134 5.399-5.787a.066.066 0 0 1 .094.002l.002.002 5.405 5.792a2.68 2.68 0 0 1 .615 1.166 2.54 2.54 0 0 1 .066.523 2.55 2.55 0 0 1-.951 2.266l-4.276 4.193a3.02 3.02 0 0 1-4.205-.038 1.377 1.377 0 0 0-1.951.003 1.377 1.377 0 0 0 .003 1.955l2.396 2.392c2.211 2.207 5.815 2.239 8.063.074l.039-.038 4.277-4.193a5.94 5.94 0 0 0 1.271-1.818 5.83 5.83 0 0 0 .349-1.017 5.53 5.53 0 0 0 .062-2.362 5.35 5.35 0 0 0-.125-.513 5.27 5.27 0 0 0-1.209-2.104L17.845 6.226 12.443.438A1.374 1.374 0 0 0 11.483 0z" /></svg>