<svg xmlns="http://www.w3.org/2000/svg" viewBox="0 0 110 110" role="img" aria-label="Scanapi">
  <rect width="110" height="110" rx="20" fill="#101B3D"/>
  <g transform="translate(20 18)" fill="none" stroke="#ffffff" stroke-linecap="round">
    <path d="M0 30 A35 35 0 0 1 70 30" stroke-width="3.5"/>
    <rect x="14" y="26" width="42" height="4" rx="1" fill="#e63946" stroke="none"/>
    <line x1="35" y1="30" x2="35" y2="26" stroke-width="2.5"/>
    <g stroke-width="2.2">
      <line x1="14" y1="30" x2="14" y2="50"/>
      <line x1="22" y1="30" x2="22" y2="46"/>
      <line x1="30" y1="30" x2="30" y2="54"/>
      <line x1="35" y1="30" x2="35" y2="48"/>
      <line x1="42" y1="30" x2="42" y2="52"/>
      <line x1="50" y1="30" x2="50" y2="46"/>
      <line x1="56" y1="30" x2="56" y2="50"/>
    </g>
    <g fill="#ffffff" stroke="none">
      <circle cx="14" cy="52" r="2.5"/>
      <circle cx="22" cy="48" r="2.5"/>
      <circle cx="30" cy="56" r="2.5"/>
      <circle cx="35" cy="50" r="2.5"/>
      <circle cx="42" cy="54" r="2.5"/>
      <circle cx="50" cy="48" r="2.5"/>
      <circle cx="56" cy="52" r="2.5"/>
    </g>
  </g>
</svg>