<svg width="56" height="56" viewBox="0 0 56 56" fill="none" xmlns="http://www.w3.org/2000/svg">
  <!-- Left chevron < -->
  <path d="M 6 28 L 16 18 L 16 22 L 10 28 L 16 34 L 16 38 Z" fill="white"/>
  
  <!-- Right chevron > -->
  <path d="M 50 28 L 40 18 L 40 22 L 46 28 L 40 34 L 40 38 Z" fill="white"/>
  
  <!-- Central hash symbol - overlapping rounded bars -->
  <!-- Top-left to bottom-right: upper bar (white) -->
  <rect x="18" y="16" width="20" height="5" rx="2.5" fill="white" transform="rotate(45 28 18.5)"/>
  
  <!-- Top-left to bottom-right: lower bar (medium blue) -->
  <rect x="18" y="32" width="20" height="5" rx="2.5" fill="#3B82F6" transform="rotate(45 28 34.5)"/>
  
  <!-- Top-right to bottom-left: upper bar (lighter blue) -->
  <rect x="18" y="16" width="20" height="5" rx="2.5" fill="#60A5FA" transform="rotate(-45 28 18.5)"/>
  
  <!-- Top-right to bottom-left: lower bar (darker blue) -->
  <rect x="18" y="32" width="20" height="5" rx="2.5" fill="#1E40AF" transform="rotate(-45 28 34.5)"/>
  
  <!-- SWOC text - blocky monospace style -->
  <text x="28" y="50" font-family="'Courier New', monospace" font-size="7" font-weight="bold" fill="white" text-anchor="middle" letter-spacing="1">SWOC</text>
</svg>
