
        <svg xmlns="http://www.w3.org/2000/svg" viewBox="0 0 800 600" style="background-color: #0f172a;">
            <defs>
                <marker id="arrowhead" markerWidth="10" markerHeight="7" refX="0" refY="3.5" orient="auto">
                    <polygon points="0 0, 10 3.5, 0 7" fill="#94a3b8"/>
                </marker>
            </defs>
            <text x="400" y="50" text-anchor="middle" font-family="sans-serif" font-size="24" fill="white">YOLOv8 Real-Time Vision Inference Engine Architecture</text>
            
            <!-- Client -->
            <rect x="50" y="250" width="120" height="80" rx="8" fill="#1e293b" stroke="#10b981" stroke-width="2"/>
            <text x="110" y="295" text-anchor="middle" fill="white" font-family="sans-serif">Client</text>
            
            <!-- API Gateway -->
            <rect x="250" y="250" width="120" height="80" rx="8" fill="#1e293b" stroke="#8b5cf6" stroke-width="2"/>
            <text x="310" y="295" text-anchor="middle" fill="white" font-family="sans-serif">API Gateway</text>
            
            <!-- Services -->
            <rect x="450" y="150" width="120" height="80" rx="8" fill="#1e293b" stroke="#cbd5e1" stroke-width="2"/>
            <text x="510" y="195" text-anchor="middle" fill="white" font-family="sans-serif">Service A</text>
            
            <rect x="450" y="350" width="120" height="80" rx="8" fill="#1e293b" stroke="#cbd5e1" stroke-width="2"/>
            <text x="510" y="395" text-anchor="middle" fill="white" font-family="sans-serif">Service B</text>
            
            <!-- Database -->
            <path d="M650 250 C 650 240, 770 240, 770 250 L 770 330 C 770 340, 650 340, 650 330 Z" fill="#1e293b" stroke="#10b981" stroke-width="2"/>
            <path d="M650 250 C 650 260, 770 260, 770 250" fill="none" stroke="#10b981" stroke-width="2"/>
            <text x="710" y="300" text-anchor="middle" fill="white" font-family="sans-serif">Database</text>
            
            <!-- Connections -->
            <line x1="170" y1="290" x2="240" y2="290" stroke="#94a3b8" stroke-width="2" marker-end="url(#arrowhead)"/>
            <line x1="370" y1="290" x2="440" y2="190" stroke="#94a3b8" stroke-width="2" marker-end="url(#arrowhead)"/>
            <line x1="370" y1="290" x2="440" y2="390" stroke="#94a3b8" stroke-width="2" marker-end="url(#arrowhead)"/>
            <line x1="570" y1="190" x2="640" y2="290" stroke="#94a3b8" stroke-width="2" marker-end="url(#arrowhead)"/>
            <line x1="570" y1="390" x2="640" y2="290" stroke="#94a3b8" stroke-width="2" marker-end="url(#arrowhead)"/>
        </svg>