<svg xmlns="http://www.w3.org/2000/svg" viewBox="0 0 1440 810" width="1440" height="810">
  <!-- Background -->
  <rect x="0" y="0" width="1440" height="810" fill="#1a1d23" rx="10" />
  
  <!-- Steps -->
  <g>
    <!-- Collect signals -->
    <rect x="100" y="100" width="200" height="50" fill="#2f343a" rx="10" />
    <text x="150" y="135" font-size="24" font-family="Arial" fill="#66d9ef">Collect signals</text>
    
    <!-- Embed -->
    <rect x="350" y="100" width="200" height="50" fill="#2f343a" rx="10" />
    <text x="400" y="135" font-size="24" font-family="Arial" fill="#66d9ef">Embed</text>
    
    <!-- Approximate nearest neighbor -->
    <rect x="600" y="100" width="250" height="50" fill="#2f343a" rx="10" />
    <text x="650" y="135" font-size="24" font-family="Arial" fill="#66d9ef">Approximate nearest neighbor</text>
    
    <!-- Rerank -->
    <rect x="900" y="100" width="200" height="50" fill="#2f343a" rx="10" />
    <text x="950" y="135" font-size="24" font-family="Arial" fill="#66d9ef">Rerank</text>
    
    <!-- Diversify -->
    <rect x="100" y="250" width="200" height="50" fill="#2f343a" rx="10" />
    <text x="150" y="285" font-size="24" font-family="Arial" fill="#66d9ef">Diversify</text>
    
    <!-- Serve -->
    <rect x="350" y="250" width="200" height="50" fill="#2f343a" rx="10" />
    <text x="400" y="285" font-size="24" font-family="Arial" fill="#66d9ef">Serve</text>
    
    <!-- Feedback loop -->
    <rect x="600" y="250" width="200" height="50" fill="#2f343a" rx="10" />
    <text x="650" y="285" font-size="24" font-family="Arial" fill="#66d9ef">Feedback loop</text>
  </g>
  
  <!-- Connections -->
  <g>
    <path d="M300 125 L350 125" stroke="#66d9ef" stroke-width="2" />
    <path d="M550 125 L600 125" stroke="#66d9ef" stroke-width="2" />
    <path d="M850 125 L900 125" stroke="#66d9ef" stroke-width="2" />
    <path d="M300 275 L350 275" stroke="#66d9ef" stroke-width="2" />
    <path d="M550 275 L600 275" stroke="#66d9ef" stroke-width="2" />
    <path d="M300 125 L300 225" stroke="#66d9ef" stroke-width="2" />
    <path d="M900 125 L900 225" stroke="#66d9ef" stroke-width="2" />
  </g>
</svg>